<mxfile host="drawio-plugin" modified="2023-03-19T15:56:51.830Z" agent="5.0 (Windows NT 6.2; Win64; x64) AppleWebKit/537.36 (KHTML, like Gecko) Chrome/104.0.5112.102 Safari/537.36" version="20.5.3" etag="kQMLkgXYclklXU1tgQDC" type="embed"><diagram id="2Z7hQtdgWNdP2lW2KOWq" name="Page-1"><mxGraphModel dx="4244" dy="406" grid="1" gridSize="10" guides="1" tooltips="1" connect="1" arrows="1" fold="1" page="1" pageScale="1" pageWidth="850" pageHeight="1100" math="0" shadow="0"><root><mxCell id="0"/><mxCell id="1" parent="0"/><mxCell id="node9" value="&lt;p style=&quot;margin:0px;margin-top:4px;text-align:center;&quot;&gt;&lt;b&gt;App.Models.circuit.Circuit&lt;/b&gt;&lt;/p&gt;&lt;hr size=&quot;1&quot;&gt;&lt;p style=&quot;margin:0 0 0 4px;line-height:1.6;&quot;&gt; name: str&lt;br&gt; location: Location&lt;br&gt; circuitId: str&lt;/p&gt;&lt;hr size=&quot;1&quot;&gt;&lt;p style=&quot;margin:0 0 0 4px;line-height:1.6;&quot;&gt; __init__(self, circuitId, name, **kwargs): &lt;/p&gt;" style="verticalAlign=top;align=left;overflow=fill;fontSize=14;fontFamily=Helvetica;html=1;rounded=0;shadow=0;comic=0;labelBackgroundColor=none;strokeWidth=1;" parent="1" vertex="1"><mxGeometry x="-1710" y="579" width="293" height="161" as="geometry"/></mxCell><mxCell id="node8" value="&lt;p style=&quot;margin:0px;margin-top:4px;text-align:center;&quot;&gt;&lt;b&gt;App.Models.client.Client&lt;/b&gt;&lt;/p&gt;&lt;hr size=&quot;1&quot;&gt;&lt;p style=&quot;margin:0 0 0 4px;line-height:1.6;&quot;&gt; total_spent: int&lt;br&gt; tickets: list[Ticket]&lt;br&gt; name: str&lt;br&gt; id: str&amp;nbsp;&lt;br&gt; age: int&lt;/p&gt;&lt;hr size=&quot;1&quot;&gt;&lt;p style=&quot;margin:0 0 0 4px;line-height:1.6;&quot;&gt; __init__(self, name, id, age, total_spent=0, tickets=None): &lt;br&gt; __str__(self): &lt;br&gt; add_ticket(self, ticket): &lt;/p&gt;" style="verticalAlign=top;align=left;overflow=fill;fontSize=14;fontFamily=Helvetica;html=1;rounded=0;shadow=0;comic=0;labelBackgroundColor=none;strokeWidth=1;" parent="1" vertex="1"><mxGeometry x="-2990" y="572" width="417" height="238" as="geometry"/></mxCell><mxCell id="node12" value="&lt;p style=&quot;margin:0px;margin-top:4px;text-align:center;&quot;&gt;&lt;b&gt;App.Models.constructor.Constructor&lt;/b&gt;&lt;/p&gt;&lt;hr size=&quot;1&quot;&gt;&lt;p style=&quot;margin:0 0 0 4px;line-height:1.6;&quot;&gt;score: int&lt;br&gt;nationality: str&lt;br&gt;name: str&lt;br&gt;id: str&lt;/p&gt;&lt;hr size=&quot;1&quot;&gt;&lt;p style=&quot;margin:0 0 0 4px;line-height:1.6;&quot;&gt;+__init__(self, id, name, nationality, score=0): &lt;br&gt;+__str__(self): str&lt;br&gt;+set_score(self, drivers): &lt;/p&gt;" style="verticalAlign=top;align=left;overflow=fill;fontSize=14;fontFamily=Helvetica;html=1;rounded=0;shadow=0;comic=0;labelBackgroundColor=none;strokeWidth=1;" parent="1" vertex="1"><mxGeometry x="-3300" y="572" width="282" height="221" as="geometry"/></mxCell><mxCell id="node7" value="&lt;p style=&quot;margin:0px;margin-top:4px;text-align:center;&quot;&gt;&lt;b&gt;App.Models.driver.Driver&lt;/b&gt;&lt;/p&gt;&lt;hr size=&quot;1&quot;&gt;&lt;p style=&quot;margin:0 0 0 4px;line-height:1.6;&quot;&gt; firstName: str&lt;br&gt; lastName: str&lt;br&gt; score: int&lt;br&gt; code: str&lt;br&gt; permanentNumber: str&lt;br&gt; nationality: str&lt;br&gt; dateOfBirth: str&lt;br&gt; id: str&lt;br&gt; team: str&lt;/p&gt;&lt;hr size=&quot;1&quot;&gt;&lt;p style=&quot;margin:0 0 0 4px;line-height:1.6;&quot;&gt; __init__(self, id, permanentNumber, code, team, firstName, lastName, dateOfBirth, nationality, score=0): &lt;br&gt; __str__(self): &lt;/p&gt;" style="verticalAlign=top;align=left;overflow=fill;fontSize=14;fontFamily=Helvetica;html=1;rounded=0;shadow=0;comic=0;labelBackgroundColor=none;strokeWidth=1;" parent="1" vertex="1"><mxGeometry x="-1275" y="821" width="655" height="321" as="geometry"/></mxCell><mxCell id="node11" value="&lt;p style=&quot;margin:0px;margin-top:4px;text-align:center;&quot;&gt;&lt;b&gt;App.Models.location.Location&lt;/b&gt;&lt;/p&gt;&lt;hr size=&quot;1&quot;&gt;&lt;p style=&quot;margin:0 0 0 4px;line-height:1.6;&quot;&gt; country: str&lt;br&gt; locality: str&lt;br&gt; lat: str&lt;br&gt; long: str&lt;/p&gt;&lt;hr size=&quot;1&quot;&gt;&lt;p style=&quot;margin:0 0 0 4px;line-height:1.6;&quot;&gt; __init__(self, lat, long, locality, country): &lt;/p&gt;" style="verticalAlign=top;align=left;overflow=fill;fontSize=14;fontFamily=Helvetica;html=1;rounded=0;shadow=0;comic=0;labelBackgroundColor=none;strokeWidth=1;" parent="1" vertex="1"><mxGeometry x="-1275" y="579" width="265" height="181" as="geometry"/></mxCell><mxCell id="node2" value="&lt;p style=&quot;margin:0px;margin-top:4px;text-align:center;&quot;&gt;&lt;b&gt;App.Models.race.Race&lt;/b&gt;&lt;/p&gt;&lt;hr size=&quot;1&quot;&gt;&lt;p style=&quot;margin:0 0 0 4px;line-height:1.6;&quot;&gt; date: str&lt;br&gt; circuit: Circuit&lt;br&gt; round: str&lt;br&gt; name: str&lt;br&gt; restaurants: Restaurant&lt;br&gt; vip_seats: list[Seat]&lt;br&gt; map: list&lt;br&gt; attendance: int&lt;br&gt; sold_tickets: int&lt;br&gt; general_seats: list[Seat]&lt;/p&gt;&lt;hr size=&quot;1&quot;&gt;&lt;p style=&quot;margin:0 0 0 4px;line-height:1.6;&quot;&gt; __init__(self, round, name, circuit, date, restaurants, map, attendance=0, sold_tickets=0, vip_seats=None, general_seats=None): &lt;br&gt; __str__(self): &lt;br&gt; define_general_seats_matrix(self): &lt;br&gt; define_vip_seats_matrix(self): &lt;br&gt; print_general_seats(self): &lt;br&gt; print_vip_seats(self): &lt;br&gt; print_general_seats_tabulate(self): &lt;br&gt; print_vip_seats_tabulate(self): &lt;br&gt; pretty_print_attendance(self): &lt;br&gt; pretty_print_sold_tickets(self): &lt;/p&gt;" style="verticalAlign=top;align=left;overflow=fill;fontSize=14;fontFamily=Helvetica;html=1;rounded=0;shadow=0;comic=0;labelBackgroundColor=none;strokeWidth=1;" parent="1" vertex="1"><mxGeometry x="-2167" y="579" width="333" height="473" as="geometry"/></mxCell><mxCell id="node6" value="&lt;p style=&quot;margin:0px;margin-top:4px;text-align:center;&quot;&gt;&lt;b&gt;App.Models.refreshment.Drink&lt;/b&gt;&lt;/p&gt;&lt;hr size=&quot;1&quot;&gt;&lt;p style=&quot;margin:0 0 0 4px;line-height:1.6;&quot;&gt; type: str&lt;/p&gt;&lt;hr size=&quot;1&quot;&gt;&lt;p style=&quot;margin:0 0 0 4px;line-height:1.6;&quot;&gt; __init__(self, name, price, type, total_sold=0, stock=10): &lt;br&gt; __str__(self): &lt;/p&gt;" style="verticalAlign=top;align=left;overflow=fill;fontSize=14;fontFamily=Helvetica;html=1;rounded=0;shadow=0;comic=0;labelBackgroundColor=none;strokeWidth=1;" parent="1" vertex="1"><mxGeometry x="-1430" y="1425" width="370" height="135" as="geometry"/></mxCell><mxCell id="node1" value="&lt;p style=&quot;margin:0px;margin-top:4px;text-align:center;&quot;&gt;&lt;b&gt;App.Models.refreshment.Food&lt;/b&gt;&lt;/p&gt;&lt;hr size=&quot;1&quot;&gt;&lt;p style=&quot;margin:0 0 0 4px;line-height:1.6;&quot;&gt; type: str&lt;/p&gt;&lt;hr size=&quot;1&quot;&gt;&lt;p style=&quot;margin:0 0 0 4px;line-height:1.6;&quot;&gt; __init__(self, name, price, type, total_sold=0, stock=10): &lt;br&gt; __str__(self): &lt;/p&gt;" style="verticalAlign=top;align=left;overflow=fill;fontSize=14;fontFamily=Helvetica;html=1;rounded=0;shadow=0;comic=0;labelBackgroundColor=none;strokeWidth=1;" parent="1" vertex="1"><mxGeometry x="-1880" y="1420" width="370" height="133" as="geometry"/></mxCell><mxCell id="node10" value="&lt;p style=&quot;margin:0px;margin-top:4px;text-align:center;&quot;&gt;&lt;b&gt;App.Models.refreshment.Refreshment&lt;/b&gt;&lt;/p&gt;&lt;hr size=&quot;1&quot;&gt;&lt;p style=&quot;margin:0 0 0 4px;line-height:1.6;&quot;&gt; price: int&lt;br&gt; name: str&lt;br&gt; total_sold: int&lt;br&gt; stock: int&lt;/p&gt;&lt;hr size=&quot;1&quot;&gt;&lt;p style=&quot;margin:0 0 0 4px;line-height:1.6;&quot;&gt; __init__(self, name, price, total_sold, stock): &lt;br&gt; __str__(self): &lt;/p&gt;" style="verticalAlign=top;align=left;overflow=fill;fontSize=14;fontFamily=Helvetica;html=1;rounded=0;shadow=0;comic=0;labelBackgroundColor=none;strokeWidth=1;" parent="1" vertex="1"><mxGeometry x="-1638" y="1100" width="284" height="200" as="geometry"/></mxCell><mxCell id="node3" value="&lt;p style=&quot;margin:0px;margin-top:4px;text-align:center;&quot;&gt;&lt;b&gt;App.Models.restaurant.Restaurant&lt;/b&gt;&lt;/p&gt;&lt;hr size=&quot;1&quot;&gt;&lt;p style=&quot;margin:0 0 0 4px;line-height:1.6;&quot;&gt; name: str&lt;br&gt; items: list[Refreshment]&lt;/p&gt;&lt;hr size=&quot;1&quot;&gt;&lt;p style=&quot;margin:0 0 0 4px;line-height:1.6;&quot;&gt; __init__(self, name, items): &lt;/p&gt;" style="verticalAlign=top;align=left;overflow=fill;fontSize=14;fontFamily=Helvetica;html=1;rounded=0;shadow=0;comic=0;labelBackgroundColor=none;strokeWidth=1;" parent="1" vertex="1"><mxGeometry x="-1638" y="770" width="258" height="149" as="geometry"/></mxCell><mxCell id="node5" value="&lt;p style=&quot;margin:0px;margin-top:4px;text-align:center;&quot;&gt;&lt;b&gt;App.Models.seat.Seat&lt;/b&gt;&lt;/p&gt;&lt;hr size=&quot;1&quot;&gt;&lt;p style=&quot;margin:0 0 0 4px;line-height:1.6;&quot;&gt; assisted: bool&lt;br&gt; code: str&lt;br&gt; taken: bool&lt;br&gt; position: str&lt;/p&gt;&lt;hr size=&quot;1&quot;&gt;&lt;p style=&quot;margin:0 0 0 4px;line-height:1.6;&quot;&gt; __init__(self, position, code=None, taken=False, assisted=False): &lt;br&gt; __repr__(self): str&lt;br&gt; show_all(self): str&lt;/p&gt;" style="verticalAlign=top;align=left;overflow=fill;fontSize=14;fontFamily=Helvetica;html=1;rounded=0;shadow=0;comic=0;labelBackgroundColor=none;strokeWidth=1;" parent="1" vertex="1"><mxGeometry x="-2172.5" y="1142" width="344" height="218" as="geometry"/></mxCell><mxCell id="node0" value="&lt;p style=&quot;margin:0px;margin-top:4px;text-align:center;&quot;&gt;&lt;b&gt;App.Models.ticket.Ticket&lt;/b&gt;&lt;/p&gt;&lt;hr size=&quot;1&quot;&gt;&lt;p style=&quot;margin:0 0 0 4px;line-height:1.6;&quot;&gt; race_round: str&lt;br&gt; code: str&lt;br&gt; total_price: int&lt;br&gt; discount: bool&lt;br&gt; type: TicketType&lt;/p&gt;&lt;hr size=&quot;1&quot;&gt;&lt;p style=&quot;margin:0 0 0 4px;line-height:1.6;&quot;&gt; __init__(self, race_round, type, code=None, total_price=0, discount=False): &lt;br&gt; calculate_price(self): &lt;/p&gt;" style="verticalAlign=top;align=left;overflow=fill;fontSize=14;fontFamily=Helvetica;html=1;rounded=0;shadow=0;comic=0;labelBackgroundColor=none;strokeWidth=1;" parent="1" vertex="1"><mxGeometry x="-3130" y="900" width="530" height="220" as="geometry"/></mxCell><mxCell id="node4" value="&lt;p style=&quot;margin:0px;margin-top:4px;text-align:center;&quot;&gt;&lt;b&gt;App.Models.ticket.TicketType&lt;/b&gt;&lt;/p&gt;&lt;hr size=&quot;1&quot;&gt;&lt;p style=&quot;margin:0 0 0 4px;line-height:1.6;&quot;&gt; VIP: str&lt;br&gt; GENERAL: str&lt;/p&gt;" style="verticalAlign=top;align=left;overflow=fill;fontSize=14;fontFamily=Helvetica;html=1;rounded=0;shadow=0;comic=0;labelBackgroundColor=none;strokeWidth=1;" parent="1" vertex="1"><mxGeometry x="-2486" y="1040" width="229" height="90" as="geometry"/></mxCell><mxCell id="node13" value="&lt;p style=&quot;margin:0px;margin-top:4px;text-align:center;&quot;&gt;&lt;b&gt;enum.Enum&lt;/b&gt;&lt;/p&gt;&lt;hr size=&quot;1&quot;&gt;&lt;p style=&quot;margin:0 0 0 4px;line-height:1.6;&quot;&gt; result: &lt;br&gt; __context__: str&lt;br&gt; exc: str&lt;br&gt; ve_exc: str&lt;/p&gt;&lt;hr size=&quot;1&quot;&gt;&lt;p style=&quot;margin:0 0 0 4px;line-height:1.6;&quot;&gt; __new__(): &lt;br&gt; _generate_next_value_(): &lt;br&gt; _missing_(): &lt;br&gt; __repr__(self): str&lt;br&gt; __str__(self): str&lt;br&gt; __dir__(self): &lt;br&gt; __format__(self, format_spec): &lt;br&gt; __hash__(self): &lt;br&gt; __reduce_ex__(self, proto): &lt;br&gt; name(self): &lt;br&gt; value(self): &lt;/p&gt;" style="verticalAlign=top;align=left;overflow=fill;fontSize=14;fontFamily=Helvetica;html=1;rounded=0;shadow=0;comic=0;labelBackgroundColor=none;strokeWidth=1;" parent="1" vertex="1"><mxGeometry x="-2531" y="579" width="319" height="391" as="geometry"/></mxCell><mxCell id="2" value="" style="endArrow=diamondThin;endFill=1;endSize=24;html=1;rounded=0;shadow=0;" edge="1" parent="1" source="node9"><mxGeometry width="160" relative="1" as="geometry"><mxPoint x="-1670" y="790" as="sourcePoint"/><mxPoint x="-1830" y="655" as="targetPoint"/></mxGeometry></mxCell><mxCell id="4" value="" style="endArrow=diamondThin;endFill=1;endSize=24;html=1;rounded=0;shadow=0;entryX=1;entryY=0.5;entryDx=0;entryDy=0;exitX=-0.007;exitY=0.454;exitDx=0;exitDy=0;exitPerimeter=0;" edge="1" parent="1" source="node11" target="node9"><mxGeometry width="160" relative="1" as="geometry"><mxPoint x="-1570" y="690" as="sourcePoint"/><mxPoint x="-1410" y="690" as="targetPoint"/></mxGeometry></mxCell><mxCell id="5" value="" style="endArrow=diamondThin;endFill=1;endSize=24;html=1;rounded=0;shadow=0;exitX=-0.001;exitY=0.366;exitDx=0;exitDy=0;exitPerimeter=0;" edge="1" parent="1" source="node3"><mxGeometry width="160" relative="1" as="geometry"><mxPoint x="-1780" y="820" as="sourcePoint"/><mxPoint x="-1840" y="825" as="targetPoint"/></mxGeometry></mxCell><mxCell id="7" value="" style="endArrow=none;html=1;edgeStyle=orthogonalEdgeStyle;rounded=0;shadow=0;entryX=0.5;entryY=0;entryDx=0;entryDy=0;exitX=0.5;exitY=1;exitDx=0;exitDy=0;" edge="1" parent="1" source="node10" target="node6"><mxGeometry relative="1" as="geometry"><mxPoint x="-1440" y="1110" as="sourcePoint"/><mxPoint x="-1280" y="1110" as="targetPoint"/><Array as="points"><mxPoint x="-1496" y="1330"/><mxPoint x="-1269" y="1330"/></Array></mxGeometry></mxCell><mxCell id="9" value="child" style="edgeLabel;resizable=0;html=1;align=right;verticalAlign=bottom;fontSize=14;" connectable="0" vertex="1" parent="7"><mxGeometry x="1" relative="1" as="geometry"/></mxCell><mxCell id="13" value="" style="endArrow=none;html=1;edgeStyle=orthogonalEdgeStyle;rounded=0;shadow=0;entryX=0.439;entryY=-0.024;entryDx=0;entryDy=0;entryPerimeter=0;" edge="1" parent="1" source="node10" target="node1"><mxGeometry relative="1" as="geometry"><mxPoint x="-1440" y="1110" as="sourcePoint"/><mxPoint x="-1280" y="1110" as="targetPoint"/><Array as="points"><mxPoint x="-1496" y="1330"/><mxPoint x="-1729" y="1330"/><mxPoint x="-1729" y="1417"/></Array></mxGeometry></mxCell><mxCell id="14" value="parent" style="edgeLabel;resizable=0;html=1;align=left;verticalAlign=bottom;fontSize=14;" connectable="0" vertex="1" parent="13"><mxGeometry x="-1" relative="1" as="geometry"><mxPoint y="23" as="offset"/></mxGeometry></mxCell><mxCell id="15" value="child" style="edgeLabel;resizable=0;html=1;align=right;verticalAlign=bottom;fontSize=14;" connectable="0" vertex="1" parent="13"><mxGeometry x="1" relative="1" as="geometry"/></mxCell><mxCell id="17" value="" style="endArrow=diamondThin;endFill=1;endSize=24;html=1;rounded=0;shadow=0;fontSize=14;entryX=0.5;entryY=1;entryDx=0;entryDy=0;exitX=0.467;exitY=-0.003;exitDx=0;exitDy=0;exitPerimeter=0;" edge="1" parent="1" source="node10" target="node3"><mxGeometry width="160" relative="1" as="geometry"><mxPoint x="-1509" y="1090" as="sourcePoint"/><mxPoint x="-1490" y="960" as="targetPoint"/></mxGeometry></mxCell><mxCell id="18" value="" style="endArrow=none;html=1;edgeStyle=orthogonalEdgeStyle;rounded=0;shadow=0;fontSize=14;entryX=0.5;entryY=0;entryDx=0;entryDy=0;exitX=0.5;exitY=1;exitDx=0;exitDy=0;" edge="1" parent="1" source="node13" target="node4"><mxGeometry relative="1" as="geometry"><mxPoint x="-2280" y="940" as="sourcePoint"/><mxPoint x="-2120" y="940" as="targetPoint"/></mxGeometry></mxCell><mxCell id="19" value="parent" style="edgeLabel;resizable=0;html=1;align=left;verticalAlign=bottom;fontSize=14;" connectable="0" vertex="1" parent="18"><mxGeometry x="-1" relative="1" as="geometry"><mxPoint y="18" as="offset"/></mxGeometry></mxCell><mxCell id="20" value="child" style="edgeLabel;resizable=0;html=1;align=right;verticalAlign=bottom;fontSize=14;" connectable="0" vertex="1" parent="18"><mxGeometry x="1" relative="1" as="geometry"/></mxCell><mxCell id="21" value="" style="endArrow=diamondThin;endFill=1;endSize=24;html=1;rounded=0;shadow=0;fontSize=14;exitX=0.5;exitY=0;exitDx=0;exitDy=0;entryX=0.298;entryY=1.018;entryDx=0;entryDy=0;entryPerimeter=0;" edge="1" parent="1" source="node0" target="node8"><mxGeometry width="160" relative="1" as="geometry"><mxPoint x="-2540" y="810" as="sourcePoint"/><mxPoint x="-2748" y="780" as="targetPoint"/></mxGeometry></mxCell><mxCell id="26" value="1..*" style="edgeLabel;html=1;align=center;verticalAlign=middle;resizable=0;points=[];fontSize=14;" vertex="1" connectable="0" parent="21"><mxGeometry x="-0.6217" y="1" relative="1" as="geometry"><mxPoint x="-14" y="-4" as="offset"/></mxGeometry></mxCell><mxCell id="22" value="" style="endArrow=diamondThin;endFill=1;endSize=24;html=1;rounded=0;shadow=0;fontSize=14;entryX=1;entryY=0.75;entryDx=0;entryDy=0;exitX=0;exitY=0.25;exitDx=0;exitDy=0;" edge="1" parent="1" source="node4" target="node0"><mxGeometry width="160" relative="1" as="geometry"><mxPoint x="-2480" y="970" as="sourcePoint"/><mxPoint x="-2320" y="970" as="targetPoint"/></mxGeometry></mxCell><mxCell id="23" value="" style="endArrow=diamondThin;endFill=1;endSize=24;html=1;rounded=0;shadow=0;fontSize=14;exitX=0.5;exitY=0;exitDx=0;exitDy=0;entryX=0.5;entryY=1;entryDx=0;entryDy=0;" edge="1" parent="1" source="node5" target="node2"><mxGeometry width="160" relative="1" as="geometry"><mxPoint x="-1710" y="920" as="sourcePoint"/><mxPoint x="-1550" y="920" as="targetPoint"/></mxGeometry></mxCell><mxCell id="27" value="1" style="text;html=1;align=center;verticalAlign=middle;resizable=0;points=[];autosize=1;strokeColor=none;fillColor=none;fontSize=14;" vertex="1" parent="1"><mxGeometry x="-2516" y="1040" width="30" height="30" as="geometry"/></mxCell><mxCell id="28" value="0..*" style="text;html=1;align=center;verticalAlign=middle;resizable=0;points=[];autosize=1;strokeColor=none;fillColor=none;fontSize=14;" vertex="1" parent="1"><mxGeometry x="-2000" y="1112" width="40" height="30" as="geometry"/></mxCell><mxCell id="29" value="0..*" style="text;html=1;align=center;verticalAlign=middle;resizable=0;points=[];autosize=1;strokeColor=none;fillColor=none;fontSize=14;" vertex="1" parent="1"><mxGeometry x="-1500" y="1065" width="40" height="30" as="geometry"/></mxCell><mxCell id="30" value="1" style="text;html=1;align=center;verticalAlign=middle;resizable=0;points=[];autosize=1;strokeColor=none;fillColor=none;fontSize=14;" vertex="1" parent="1"><mxGeometry x="-1745" y="625" width="30" height="30" as="geometry"/></mxCell><mxCell id="31" value="1" style="text;html=1;align=center;verticalAlign=middle;resizable=0;points=[];autosize=1;strokeColor=none;fillColor=none;fontSize=14;" vertex="1" parent="1"><mxGeometry x="-1310" y="625" width="30" height="30" as="geometry"/></mxCell><mxCell id="32" value="0..*" style="text;html=1;align=center;verticalAlign=middle;resizable=0;points=[];autosize=1;strokeColor=none;fillColor=none;fontSize=14;" vertex="1" parent="1"><mxGeometry x="-1680" y="795" width="40" height="30" as="geometry"/></mxCell></root></mxGraphModel></diagram></mxfile>